# xmcd
#
# Track frame offsets: 
#        150
#        15330
#        29884
#        44980
#        75244
#
# Disc length: 1490 seconds
#
# Revision: 3
# Processed by: cddbd v1.5.2PL0 Copyright (c) Steve Scherf et al.
# Submitted via: ExactAudioCopy v1.3
#
DISCID=3705d005
DTITLE=Mariah Carey - Memoirs Of An Imperfect Angel [CD2)
DYEAR=2009
DGENRE=R&B/Pop
TTITLE0=Obsessed (Cahill Radio Mix)
TTITLE1=Obsessed (Seamus Haji and Paul Emanuel Radio Edit)
TTITLE2=Obsessed (Jump Smokers Radio Edit)
TTITLE3=Obsessed (Friscia And Lamboy Radio Mix)
TTITLE4=Data
EXTD=
EXTT0=
EXTT1=
EXTT2=
EXTT3=
EXTT4=
PLAYORDER=
